<svg xmlns="http://www.w3.org/2000/svg" width="1200" height="900" viewBox="0 0 1200 900" fill="none">
  <rect width="1200" height="900" rx="42" fill="#16232C"/>
  <rect x="136" y="148" width="928" height="604" rx="36" fill="#F7F2EF"/>
  <rect x="190" y="220" width="356" height="460" rx="28" fill="#FFFFFF"/>
  <rect x="250" y="286" width="236" height="14" rx="7" fill="#273D4E"/>
  <rect x="250" y="336" width="236" height="54" rx="18" fill="#F3F5F6"/>
  <rect x="250" y="412" width="236" height="54" rx="18" fill="#F3F5F6"/>
  <rect x="250" y="488" width="236" height="54" rx="18" fill="#F3F5F6"/>
  <rect x="250" y="564" width="236" height="74" rx="18" fill="#F3F5F6"/>
  <rect x="640" y="236" width="320" height="204" rx="28" fill="#243846"/>
  <path d="M700 286L800 364L900 286" stroke="#FF7B55" stroke-width="18" stroke-linecap="round" stroke-linejoin="round"/>
  <rect x="640" y="498" width="320" height="28" rx="14" fill="#273D4E"/>
  <rect x="640" y="548" width="256" height="18" rx="9" fill="#7D8E98"/>
  <rect x="640" y="610" width="164" height="48" rx="24" fill="#FF4A17"/>
  <circle cx="980" cy="180" r="74" fill="#FF4A17" fill-opacity="0.14"/>
</svg>
